<svg width="16" height="17" viewBox="0 0 16 17" fill="none" xmlns="http://www.w3.org/2000/svg">
<path id="Icon / magnifyingglass" d="M6.53425 13.4448C7.95327 13.4448 9.26182 12.9903 10.3324 12.2328L14.3601 16.2223C14.547 16.4074 14.7934 16.5 15.0568 16.5C15.6091 16.5 16 16.0792 16 15.5405C16 15.288 15.915 15.0439 15.7281 14.8672L11.726 10.8945C12.5672 9.80037 13.0685 8.44529 13.0685 6.97238C13.0685 3.41215 10.1285 0.5 6.53425 0.5C2.94849 0.5 0 3.40373 0 6.97238C0 10.5326 2.93999 13.4448 6.53425 13.4448ZM6.53425 12.0476C3.73022 12.0476 1.41052 9.74987 1.41052 6.97238C1.41052 4.1949 3.73022 1.89716 6.53425 1.89716C9.33829 1.89716 11.658 4.1949 11.658 6.97238C11.658 9.74987 9.33829 12.0476 6.53425 12.0476Z" fill="#3C3C43" fill-opacity="0.6"/>
</svg>
